MoBL_ARMS_module2_4_allmuscles elbow_states	
version=1	
nRows=420	
nColumns=2	
inDegrees=yes	
	
# SIMM Motion File Header:	
name MoBL_ARMS_module2_4_allmuscles elbow_states	
datacolumns 2	
datarows 420	
otherdata 1	
range 1.641938822 2.538923584	
endheader	
time	elbow_flexion
1.641938822	97.72870665
1.643823684	97.66033221
1.646204155	97.57361868
1.648584625	97.48648726
1.650469469	97.4171886
1.652354314	97.34760652
1.654734809	97.25930579
1.657115304	97.17051648
1.659000143	97.09985513
1.660884982	97.02886635
1.663265482	96.93872847
1.665645982	96.84803907
1.667530823	96.77583187
1.669415663	96.70326309
1.67179616	96.61108433
1.674176657	96.51830645
1.6760615	96.44441321
1.677946342	96.37013071
1.680326837	96.27574917
1.682707333	96.18072623
1.684592174	96.10502466
1.686477015	96.02890412
1.688857512	95.93215132
1.69123801	95.83468866
1.69312285	95.75699703
1.695007691	95.67882838
1.697388008	95.57940778
1.699768325	95.4791737
1.701653482	95.39919049
1.703538639	95.31865511
1.705918742	95.21615033
1.708298846	95.11267648
1.710183734	95.03000915
1.712068621	94.94667455
1.714449091	94.84043555
1.716829561	94.73303876
1.718714375	94.64714682
1.720599188	94.5604659
1.722979725	94.44981192
1.725360261	94.33778817
1.727245092	94.24807936
1.729129924	94.15744408
1.731510408	94.04160632
1.733890893	93.92418812
1.735775774	93.83005528
1.737660654	93.7348635
1.740041101	93.61308392
1.742421548	93.48950774
1.744306393	93.39034762
1.746191238	93.28999794
1.748571738	93.16151666
1.750952239	93.03103605
1.752837072	92.92626586
1.754721905	92.820174
1.757102412	92.684247
1.759482919	92.54610613
1.761367759	92.43512178
1.763252598	92.32268781
1.765633097	92.17857325
1.768013595	92.03204831
1.769898436	91.91428644
1.771783277	91.79495278
1.774163775	91.64195222
1.776544273	91.48635568
1.778429113	91.36128556
1.780313953	91.23453877
1.78269445	91.07203469
1.785074946	90.90678601
1.786959791	90.77397227
1.788844635	90.63939491
1.791225127	90.46687869
1.793605619	90.29148194
1.795490462	90.15053887
1.797375306	90.00775254
1.7997558	89.82476175
1.802136295	89.6387814
1.804021136	89.48938765
1.805905977	89.33809157
1.808286474	89.1442714
1.810666972	88.94737186
1.812551813	88.78926885
1.814436653	88.62920766
1.816817147	88.42424039
1.819197641	88.21611224
1.821082489	88.0490637
1.822967336	87.88001102
1.825347825	87.66362182
1.827728315	87.44399054
1.829613156	87.2677705
1.831497997	87.08948509
1.833878496	86.86134214
1.836258994	86.62985472
1.838143833	86.44417683
1.840028673	86.25637151
1.842409151	86.0161178
1.844789629	85.77241808
1.846674507	85.57699195
1.848559384	85.37937478
1.850939836	85.12665149
1.853320287	84.87039576
1.855205134	84.66497621
1.857089981	84.45732612
1.859470474	84.19187741
1.861850968	83.92285928
1.863735806	83.70732276
1.865620644	83.48955078
1.868001145	83.21132252
1.870381647	82.92954718
1.872266487	82.7039358
1.874151327	82.47611855
1.876531825	82.18525498
1.878912322	81.89091021
1.880797164	81.65539829
1.882682005	81.41773047
1.885062502	81.11450216
1.887442998	80.80788215
1.889327839	80.56271808
1.891212681	80.31546167
1.893593177	80.00022182
1.895973674	79.68171257
1.897858515	79.42723107
1.899743356	79.17074961
1.902123851	78.84399961
1.904504346	78.51414421
1.90638919	78.25079789
1.908274035	77.98556082
1.910654527	77.64791837
1.913035019	77.30736915
1.914919468	77.03576811
1.916803918	76.7624371
1.919185429	76.41461289
1.92156694	76.06420247
1.923451135	75.78519537
1.925335329	75.50467792
1.927716484	75.1480995
1.930097639	74.78933585
1.931982627	74.50388389
1.933867616	74.21724603
1.936246667	73.85391317
1.938625718	73.48896381
1.94051275	73.19840509
1.942399782	72.90692305
1.94477758	72.53835575
1.947155379	72.16839925
1.949040327	71.87416594
1.950925275	71.57911509
1.953306103	71.20531509
1.955686932	70.83028797
1.957571275	70.53261238
1.959455619	70.23418886
1.961835559	69.85621537
1.964215498	69.47706029
1.96610234	69.17562107
1.967989182	68.87343688
1.970367125	68.49154084
1.972745067	68.10848191
1.974630166	67.8040329
1.976515264	67.49895143
1.978895802	67.1128968
1.981276341	66.72610972
1.983160716	66.41952034
1.985045091	66.11262506
1.987366409	65.73423987
1.989687727	65.3556816
1.991679699	65.03090868
1.993671672	64.70642647
1.995663645	64.38247304
1.998117774	63.98438405
2.000172088	63.65218836
2.002226402	63.32105434
2.004280716	62.99111107
2.00633503	62.66251802
2.008389344	62.33545692
2.010443658	62.01011817
2.013023584	61.60424936
2.014770091	61.33132728
2.016516597	61.05995258
2.019345835	60.62374305
2.021756936	60.25544923
2.023617241	59.97356084
2.025477547	59.69376271
2.027954095	59.32470747
2.030430644	58.95976997
2.032062653	58.72161492
2.034045319	58.4348301
2.036935353	58.02183283
2.038939071	57.73902718
2.040942789	57.45915604
2.042946507	57.18226139
2.044950225	56.90838012
2.047532349	56.5599231
2.049379454	56.31376154
2.051226559	56.0701769
2.053836039	55.73040472
2.056057924	55.44506222
2.058279808	55.16330029
2.060178685	54.92528466
2.062077561	54.68978361
2.064463334	54.39738273
2.066849107	54.10877136
2.068711979	53.88599288
2.070574851	53.66543572
2.072985172	53.38331171
2.075395493	53.10479741
2.0772747	52.89011766
2.079153907	52.67756101
2.08153663	52.4110507
2.083919352	52.14783885
2.085810625	51.94123791
2.087701899	51.73667924
2.090073993	51.48299148
2.092446088	51.23249378
2.094332313	51.03556987
2.096218539	50.84063821
2.098597995	50.59755179
2.10097745	50.35758063
2.102861769	50.16973433
2.104746088	49.98380534
2.107125107	49.75177336
2.109504126	49.52272402
2.111392698	49.34298263
2.113281269	49.16505711
2.115657107	48.9437565
2.118032944	48.72521958
2.119918327	48.55372632
2.12180371	48.38391281
2.124183948	48.17188548
2.126564187	47.96243508
2.128448659	47.79840263
2.130333131	47.63593469
2.132714134	47.4328769
2.135095138	47.23227338
2.136979874	47.07520454
2.13886461	46.91964449
2.141245176	46.72529776
2.143625741	46.533317
2.145510651	46.38301853
2.147395561	46.23423833
2.149775963	46.04850342
2.152156366	45.86515869
2.154041181	45.72167181
2.155925995	45.57967106
2.158306594	45.40243737
2.160687193	45.22756052
2.162571956	45.09077194
2.164456719	44.95544995
2.166837188	44.78662998
2.169217656	44.62014666
2.171102701	44.48997352
2.172987747	44.36127344
2.175367983	44.2008745
2.177748219	44.04284264
2.179632703	43.91942681
2.181517187	43.79754401
2.183898676	43.64575615
2.186280165	43.49652205
2.188164202	43.38030245
2.190048239	43.26573241
2.192423828	43.12365607
2.194799417	42.98430784
2.196694642	42.87516245
2.198589868	42.76787688
2.200957138	42.63656324
2.203324409	42.50832156
2.205211573	42.4083299
2.207098738	42.31035283
2.209477415	42.18977905
2.211856093	42.07255075
2.213739559	41.98217149
2.215623025	41.89400823
2.218006198	41.78569802
2.220389372	41.68106498
2.222272973	41.60098884
2.224156575	41.52324408
2.226538457	41.4282984
2.22892034	41.33715212
2.230805173	41.26775177
2.232690006	41.20078225
2.235070399	41.11969214
2.237450792	41.04248765
2.2393355	40.98410079
2.241220209	40.92811891
2.243601213	40.86081043
2.245982218	40.79729395
2.24786667	40.74970152
2.249751122	40.70446715
2.25212761	40.65077024
2.254504098	40.600784
2.256396759	40.56360469
2.258289419	40.52873399
2.260660336	40.48827403
2.263031253	40.45135847
2.264917103	40.42450497
2.266802953	40.39986278
2.26918302	40.3719036
2.271563087	40.3474275
2.273447191	40.33050201
2.275331296	40.31572106
2.277712787	40.30007163
2.280094278	40.28776357
2.281978927	40.28035716
2.283863576	40.27498352
2.286244139	40.27105884
2.288624702	40.27027842
2.290509769	40.27185399
2.292394835	40.27533741
2.294775035	40.28241642
2.297155235	40.2924331
2.299040127	40.30241141
2.300925019	40.31416725
2.303305475	40.33151049
2.305685931	40.35158929
2.307570755	40.36939244
2.30945558	40.38885021
2.311835571	40.41574261
2.314215561	40.44518017
2.316101326	40.4702803
2.31798709	40.496925
2.320366437	40.5327108
2.322745784	40.5708656
2.324630679	40.60273144
2.326515573	40.63600819
2.328896205	40.67999834
2.331276837	40.72611733
2.333161454	40.76409606
2.33504607	40.80333864
2.337426832	40.85466606
2.339807594	40.90787806
2.341692441	40.95128615
2.343577289	40.99578268
2.34595747	41.05347615
2.348337652	41.1127951
2.350223018	41.16090257
2.352108383	41.20997412
2.354488229	41.27325358
2.356868074	41.33797954
2.35875275	41.39023772
2.360637425	41.44336569
2.363018503	41.51172017
2.36539958	41.58144437
2.367283994	41.63759204
2.369168408	41.69459036
2.371543911	41.7676489
2.373919413	41.84205278
2.375813885	41.90236393
2.377708357	41.96355234
2.380077122	42.04131312
2.382445887	42.12048587
2.38433135	42.18452228
2.386216812	42.24946243
2.38859831	42.33278034
2.390979808	42.41754732
2.392862836	42.48560348
2.394745864	42.55457448
2.397127584	42.64312323
2.399509304	42.73313067
2.401395705	42.80544439
2.403282107	42.87865355
2.40566043	42.97221584
2.408038754	43.06716903
2.40992409	43.14341309
2.411809427	43.22050158
2.414189497	43.31899814
2.416569567	43.41877667
2.418454278	43.49867336
2.420338989	43.57933183
2.42271969	43.68227654
2.425100391	43.78636835
2.426985167	43.86956387
2.428869944	43.95343372
2.431250479	44.06029861
2.433631014	44.16817221
2.43551591	44.25427731
2.437400807	44.3409715
2.439781229	44.45125932
2.442161651	44.56238741
2.444046427	44.65093227
2.445931202	44.73993621
2.448311893	44.85298026
2.450692584	44.96669836
2.452577295	45.05719717
2.454462005	45.14810612
2.456837164	45.26323978
2.459212323	45.37897819
2.461106805	45.47170105
2.463001287	45.56476539
2.465370072	45.68159162
2.467738857	45.79891823
2.469624827	45.89268207
2.471510796	45.98675234
2.47389094	46.10589702
2.476271084	46.22549547
2.478154954	46.32046446
2.480038825	46.41569838
2.482420627	46.53648063
2.4837884	46.60603217
2.485156173	46.67569879
2.48912763	46.8786314
2.493030537	47.0790314
2.494426313	47.15093005
2.496525164	47.25927866
2.500415021	47.46088849
2.502024482	47.54464856
2.504344571	47.66577109
2.506963071	47.80301683
2.509172389	47.91925783
2.511381707	48.03589398
2.513290199	48.13696284
2.515198692	48.23832556
2.517577853	48.36510729
2.519957014	48.49236346
2.521815919	48.59212133
2.523674824	48.69216327
2.526091134	48.82261752
2.528507444	48.95352298
2.530385312	49.0555561
2.53226318	49.15783879
2.534650429	49.28821133
2.537037677	49.4189539
2.538923584	49.52249053
